<?xml version="1.0" encoding="UTF-8" standalone="no"?>
<!-- Created with Inkscape (http://www.inkscape.org/) -->

<svg
   version="1.1"
   id="svg9"
   width="518.95459"
   height="496.30511"
   viewBox="0 0 518.95459 496.30511"
   sodipodi:docname="Drawing1-Model.svg"
   inkscape:version="1.2.2 (732a01da63, 2022-12-09)"
   xmlns:inkscape="http://www.inkscape.org/namespaces/inkscape"
   xmlns:sodipodi="http://sodipodi.sourceforge.net/DTD/sodipodi-0.dtd"
   xmlns="http://www.w3.org/2000/svg"
   xmlns:svg="http://www.w3.org/2000/svg">
  <defs
     id="defs13">
    <clipPath
       clipPathUnits="userSpaceOnUse"
       id="clipPath25">
      <path
         d="M 0,1188 H 6992 V 8732 H 0 V 1188"
         id="path23" />
    </clipPath>
  </defs>
  <sodipodi:namedview
     id="namedview11"
     pagecolor="#505050"
     bordercolor="#eeeeee"
     borderopacity="1"
     inkscape:showpageshadow="0"
     inkscape:pageopacity="0"
     inkscape:pagecheckerboard="0"
     inkscape:deskcolor="#505050"
     showgrid="false"
     inkscape:zoom="0.6625"
     inkscape:cx="264.15094"
     inkscape:cy="555.4717"
     inkscape:window-width="1680"
     inkscape:window-height="987"
     inkscape:window-x="-8"
     inkscape:window-y="-8"
     inkscape:window-maximized="1"
     inkscape:current-layer="g17">
    <inkscape:page
       x="0"
       y="0"
       id="page15"
       width="518.95459"
       height="496.30511" />
  </sodipodi:namedview>
  <g
     id="g17"
     inkscape:groupmode="layer"
     inkscape:label="Page 1"
     transform="matrix(0,-0.08,-0.08,0,653.82393,535.6005)">
    <path
       style="fill:#d90368;stroke-width:0.284622;paint-order:stroke markers fill;stop-color:#000000"
       d="m 190.82637,273.23673 51.31697,-136.61836 33.15766,0.0199 33.15766,0.0199 50.69822,135.04059 c 27.88402,74.27233 50.85352,135.74162 51.04331,136.59843 0.29599,1.33613 -3.82971,1.55783 -28.99145,1.55783 h -29.33656 l -2.73543,-7.20448 c -1.50448,-3.96247 -6.96752,-18.49151 -12.14008,-32.28677 l -9.40463,-25.08227 -52.27199,-0.27674 -52.272,-0.27675 -12.17664,32.56351 -12.17665,32.5635 H 169.10208 139.5094 Z m 119.22044,25.34911 c -0.0957,-1.99059 -33.91403,-89.8434 -34.67944,-90.08998 -0.76296,-0.2458 -28.01402,70.15987 -34.45691,89.02265 -0.35843,1.04937 6.9733,1.33417 34.34674,1.33417 19.14136,0 34.79668,-0.12008 34.78961,-0.26684 z"
       id="path278"
       transform="matrix(0,-12.5,-12.5,0,7000,9916.6666)" />
    <path
       style="fill:#d90368;stroke-width:0.284622;paint-order:stroke markers fill;stop-color:#000000"
       d="m 610.1952,401.00067 c -7.88921,-52.3842 -20.62756,-84.11568 -47.00509,-117.09063 -15.08807,-18.86183 -31.39258,-33.92352 -65.2802,-60.3042 -46.80786,-36.43876 -58.96064,-50.78082 -63.6071,-75.06565 -6.0303,-31.51753 4.29821,-64.607299 35.14412,-112.592324 l 7.42356,-11.548363 8.1896,15.877739 c 9.38648,18.19821 18.51636,32.298072 31.28227,48.31123 10.9821,13.775608 17.17964,20.586358 47.11655,51.778438 48.1223,50.13994 63.68122,69.93356 78.01537,99.2489 7.58844,15.51943 10.98211,25.11624 14.60071,41.28866 2.1248,9.49625 2.45212,13.79962 2.38006,31.28984 -0.0757,18.37142 -0.34746,21.26467 -2.88849,30.7532 -5.38089,20.09296 -13.42578,35.32995 -31.02781,58.76657 -5.78775,7.70624 -10.83288,14.34954 -11.21138,14.76289 -0.37852,0.41335 -1.788,-6.55099 -3.13217,-15.4763 z"
       id="path280"
       transform="matrix(0,-12.5,-12.5,0,7000,9916.6666)" />
    <path
       style="fill:#d90368;stroke-width:0.284622;paint-order:stroke markers fill;stop-color:#000000"
       d="m 572.6492,519.04436 c -0.0606,-7.91932 -3.45757,-28.691 -6.02894,-36.8656 -4.91097,-15.61235 -13.1253,-30.21968 -25.19211,-44.79845 -9.42974,-11.39275 -36.94218,-38.90602 -51.52323,-51.5248 -30.12184,-26.06814 -36.82291,-36.65668 -36.82291,-58.1849 0,-15.56258 4.34902,-26.65676 21.02481,-53.63338 4.98958,-8.07169 9.22971,-14.6758 9.42253,-14.6758 0.19281,0 2.92915,4.92306 6.08076,10.94014 11.23719,21.45415 21.75164,35.36903 54.09462,71.58917 37.78188,42.31103 50.70494,63.45299 55.59412,90.9513 2.02422,11.3849 0.93412,34.29186 -2.08065,43.72125 -3.32002,10.38416 -9.45994,22.66204 -17.61379,35.22192 -6.31084,9.72099 -6.93141,10.36868 -6.95521,7.25915 z"
       id="path282"
       transform="matrix(0,-12.5,-12.5,0,7000,9916.6666)" />
  </g>
</svg>
